<svg width="43" height="43" viewBox="0 0 43 43" fill="none" xmlns="http://www.w3.org/2000/svg">
<g clip-path="url(#clip0_3_5901)">
<path d="M25.8664 6.82096H30.0781L38.5015 21.5619H40.6074C41.1659 21.5619 41.7015 21.7838 42.0965 22.1787C42.4914 22.5736 42.7133 23.1093 42.7133 23.6678C42.7133 24.2263 42.4914 24.7619 42.0965 25.1568C41.7015 25.5518 41.1659 25.7736 40.6074 25.7736H38.5015V38.4088C38.5015 38.9673 38.2797 39.5029 37.8848 39.8978C37.4898 40.2927 36.9542 40.5146 36.3957 40.5146H34.2898C33.7313 40.5146 33.1957 40.2927 32.8008 39.8978C32.4059 39.5029 32.184 38.9673 32.184 38.4088V36.3029H11.1255V38.4088C11.1255 38.9673 10.9036 39.5029 10.5087 39.8978C10.1137 40.2927 9.57811 40.5146 9.0196 40.5146H6.91375C6.35524 40.5146 5.81961 40.2927 5.42469 39.8978C5.02976 39.5029 4.8079 38.9673 4.8079 38.4088V25.7736H2.70204C2.14354 25.7736 1.60791 25.5518 1.21298 25.1568C0.818057 24.7619 0.596191 24.2263 0.596191 23.6678C0.596191 23.1093 0.818057 22.5736 1.21298 22.1787C1.60791 21.7838 2.14354 21.5619 2.70204 21.5619H4.8079L13.2313 6.82096H17.443V2.60925H25.8664V6.82096ZM33.995 21.5619L27.9723 11.0327H15.3372L9.31442 21.5619H33.995ZM12.1784 32.0912C13.0161 32.0912 13.8196 31.7584 14.412 31.166C15.0044 30.5736 15.3372 29.7702 15.3372 28.9324C15.3372 28.0947 15.0044 27.2912 14.412 26.6988C13.8196 26.1064 13.0161 25.7736 12.1784 25.7736C11.3406 25.7736 10.5372 26.1064 9.94479 26.6988C9.3524 27.2912 9.0196 28.0947 9.0196 28.9324C9.0196 29.7702 9.3524 30.5736 9.94479 31.166C10.5372 31.7584 11.3406 32.0912 12.1784 32.0912ZM31.1311 32.0912C31.9688 32.0912 32.7723 31.7584 33.3647 31.166C33.957 30.5736 34.2898 29.7702 34.2898 28.9324C34.2898 28.0947 33.957 27.2912 33.3647 26.6988C32.7723 26.1064 31.9688 25.7736 31.1311 25.7736C30.2933 25.7736 29.4899 26.1064 28.8975 26.6988C28.3051 27.2912 27.9723 28.0947 27.9723 28.9324C27.9723 29.7702 28.3051 30.5736 28.8975 31.166C29.4899 31.7584 30.2933 32.0912 31.1311 32.0912Z" fill="#352F2B"/>
</g>
<defs>
<clipPath id="clip0_3_5901">
<rect width="42.1171" height="42.1171" fill="white" transform="translate(0.596191 0.503418)"/>
</clipPath>
</defs>
</svg>
